<?xml version="1.0" encoding="UTF-8"?>
<svg width="160px" height="160px" viewBox="0 0 160 160" version="1.1" xmlns="http://www.w3.org/2000/svg" xmlns:xlink="http://www.w3.org/1999/xlink">
    <title>gocalf-logo-正圆-透明</title>
    <g id="gocalf-logo-正圆-透明" stroke="none" stroke-width="1" fill="none" fill-rule="evenodd">
        <g id="编组" transform="translate(22.800000, 17.000000)" fill="#3370FF">
            <path d="M56.5917969,9.79520312 C66.7690663,9.79520312 76.3184351,12.4835649 84.5685023,17.1888875 C94.2659019,22.7196779 102.168131,31.0371864 107.184817,41.0510391 L85.5019697,51.8921517 C80.1964186,41.301919 69.2431071,34.0319219 56.5917969,34.0319219 C38.74437,34.0319219 24.2761719,48.50012 24.2761719,66.3475469 C24.2761719,84.1949737 38.74437,98.6631719 56.5917969,98.6631719 C69.2431071,98.6631719 80.1964186,91.3931748 85.5019697,80.8029421 L107.184711,91.6442663 C97.900038,110.177294 78.7316782,122.899891 56.5917969,122.899891 C25.3587999,122.899891 0.039453125,97.5805439 0.039453125,66.3475469 C0.039453125,35.1145499 25.3587999,9.79520312 56.5917969,9.79520312 Z" id="形状结合" fill-rule="nonzero"></path>
            <path d="M14.1775391,0.100515629 C16.354543,0.100515629 18.2633935,1.24861744 19.3316379,2.97236853 L19.3402079,2.96767843 L19.3720521,3.03852343 C19.5698875,3.36707099 19.7374343,3.71592136 19.8708277,4.0812096 C22.956022,10.0660551 29.1974361,14.1578125 36.3945313,14.1578125 C38.9802368,14.1578125 41.4425873,13.6296671 43.6795909,12.6753683 C44.2523366,14.0217336 44.8360297,15.4198823 45.4169144,16.827237 L45.8286274,17.8273073 C47.7095635,22.4075363 49.5257758,26.9796452 50.7957122,30.0967715 C46.5773446,32.5961891 41.6536046,34.0319219 36.3945312,34.0319219 C21.0281076,34.0319219 8.52456906,21.7744536 8.12805858,6.50366008 C8.12157788,6.38947286 8.11835938,6.27495995 8.11835938,6.15969532 C8.11835938,2.81330278 10.8311465,0.100515629 14.1775391,0.100515629 Z" id="形状结合"></path>
            <path d="M68.3062109,0.100515629 C70.4832149,0.100515629 72.3920654,1.24861744 73.4603097,2.97236853 L73.4688798,2.96767843 L73.5007239,3.03852343 C73.6985594,3.36707099 73.8661062,3.71592136 73.9994996,4.0812096 C77.0846939,10.0660551 83.3261079,14.1578125 90.5232031,14.1578125 C93.1089086,14.1578125 95.5712592,13.6296671 97.8082628,12.6753683 C98.3810085,14.0217336 98.9647015,15.4198823 99.5455863,16.827237 L99.9572993,17.8273073 C101.838235,22.4075363 103.654448,26.9796452 104.924384,30.0967715 C100.706016,32.5961891 95.7822765,34.0319219 90.5232031,34.0319219 C75.1567795,34.0319219 62.6532409,21.7744536 62.2567305,6.50366008 C62.2502498,6.38947286 62.2470313,6.27495995 62.2470313,6.15969532 C62.2470313,2.81330278 64.9598184,0.100515629 68.3062109,0.100515629 Z" id="形状结合备份-2" transform="translate(83.587287, 17.066219) scale(-1, 1) translate(-83.587287, -17.066219) "></path>
        </g>
    </g>
</svg>