<?xml version="1.0" encoding="UTF-8"?>
<svg width="32px" height="32px" viewBox="0 0 32 32" version="1.1" xmlns="http://www.w3.org/2000/svg" xmlns:xlink="http://www.w3.org/1999/xlink">
    <title>gocalf-logo-32</title>
    <g id="gocalf-logo-32" stroke="none" stroke-width="1" fill="none" fill-rule="evenodd">
        <g id="编组" transform="translate(2.000000, 0.300000)" fill="#3370FF">
            <path d="M14,2.92 C16.5194671,2.92 18.8834923,3.58552618 20.9258646,4.75036765 C23.3266591,6.11963072 25.2829988,8.17883964 26.5249111,10.6580218 L21.157438,13.3424173 C19.8441878,10.7201917 17.1323226,8.92 14,8.92 C9.581722,8.92 6,12.501722 6,16.92 C6,21.338278 9.581722,24.92 14,24.92 C17.1319237,24.92 19.8434972,23.1202667 21.1569362,20.4985844 L26.524486,23.1828269 C24.2259103,27.770606 19.4807453,30.92 14,30.92 C6.26801351,30.92 0,24.6519865 0,16.92 C0,9.18801351 6.26801351,2.92 14,2.92 Z" id="形状结合" fill-rule="nonzero"></path>
            <path d="M3.5,0.520000001 C4.0389319,0.520000001 4.51148102,0.804218481 4.77593471,1.23094279 L4.77757384,1.23002808 L4.78972262,1.25363724 C4.83633603,1.33191483 4.87602559,1.41479558 4.90794647,1.50143469 C5.66943921,2.98459361 7.21613917,4 9,4 C9.64019601,4 10.2498465,3.86921924 10.8036928,3.63291651 C11.4393516,5.12866795 12.1313531,6.88111103 12.5653953,7.94646894 C11.5210107,8.56452258 10.3020185,8.92 9,8.92 C5.17912337,8.92 2.07324819,5.85871493 2.00127666,2.05504698 L2,2.02 C2,1.19157288 2.67157288,0.520000001 3.5,0.520000001 Z" id="形状结合"></path>
            <path d="M16.9,0.520000001 C17.4389319,0.520000001 17.911481,0.804218481 18.1759347,1.23094279 L18.1775738,1.23002808 L18.1897226,1.25363724 C18.236336,1.33191483 18.2760256,1.41479558 18.3079465,1.50143469 C19.0694392,2.98459361 20.6161392,4 22.4,4 C23.040196,4 23.6498465,3.86921924 24.2036928,3.63291651 C24.8393516,5.12866795 25.5313531,6.88111103 25.9653953,7.94646894 C24.9210107,8.56452258 23.7020185,8.92 22.4,8.92 C18.5791234,8.92 15.4732482,5.85871493 15.4012767,2.05504698 L15.4,2.02 C15.4,1.19157288 16.0715729,0.520000001 16.9,0.520000001 Z" id="形状结合备份-2" transform="translate(20.682957, 4.720000) scale(-1, 1) translate(-20.682957, -4.720000) "></path>
        </g>
    </g>
</svg>